<?xml version="1.0" standalone="no"?><!DOCTYPE svg PUBLIC "-//W3C//DTD SVG 1.1//EN" "http://www.w3.org/Graphics/SVG/1.1/DTD/svg11.dtd"><svg class="icon" width="200px" height="200.00px" viewBox="0 0 1024 1024" version="1.1" xmlns="http://www.w3.org/2000/svg"><path d="M855.025748 651.050875c-69.889655-141.839026-197.330769-211.708586-342.816998-209.648871l-0.200948 0.321516-0.210995-0.321516c-145.476182-2.009478-272.927343 67.809845-342.816999 209.648871s-78.108422 367.92543 316.563165 367.925429q13.855353 0 26.464829-0.934407 12.609476 0.914313 26.464829 0.934407c394.671586 0 386.442772-226.066309 316.553117-367.925429z" fill="#E4A943" /><path d="M538.472631 1024c-9.102937 0-18.004926-0.311469-26.464829-0.92436-8.459904 0.612891-17.361893 0.92436-26.464829 0.92436-88.66823 0-162.285468-11.504263-218.812093-34.161131-50.427858-20.235446-87.834297-49.543688-111.194481-87.09079C133.070431 866.597565 123.766547 823.504303 127.785503 774.613695c3.365876-40.450798 16.075826-83.945956 36.662932-125.783294 34.563027-70.090603 83.35316-124.185759 145.024049-160.878833 59.359989-35.276392 127.461209-52.618189 202.394654-51.57326h0.27128c74.953541-1.004739 143.044713 16.296869 202.394654 51.57326 61.680936 36.693074 110.461022 90.78823 145.003955 160.878833 20.617247 41.837338 33.287008 85.332496 36.652884 125.783294 4.069194 48.890607-5.254786 91.983869-27.710706 128.094195-23.309948 37.547102-60.776671 66.855343-111.194482 87.130979-56.536672 22.656868-130.143862 34.161131-218.812092 34.161131z m-26.464829-10.991846h0.361706c8.329288 0.612891 17.080566 0.92436 26.123218 0.92436 87.412306 0 159.753525-11.263126 215.014178-33.477909 48.458569-19.41156 84.227283-47.363404 106.442066-83.051738 55.833355-89.773443 12.006633-200.636361-9.424454-244.151614-65.418566-132.726042-187.574752-207.981004-335.532639-206.855696l-3.014217 4.732322-3.014218-4.732322h-3.365876c-146.410589 0-267.260614 75.144441-332.156716 206.885839-21.441133 43.495158-65.308045 154.358076-9.424453 244.151613 22.204735 35.688335 58.003591 63.640178 106.401876 83.071833 55.341032 22.214783 127.702346 33.477908 215.074463 33.477909 8.982368 0 17.763788-0.311469 26.123218-0.92436z" fill="#CE6A20" /><path d="M523.351307 448.384941s-19.783314-0.261232-25.439995 0 2.059715 15.412699 2.059715 15.412698h25.178763z" fill="#E4A943" /><path d="M828.279592 786.982034c-22.013835-29.137435-40.420656-30.142175-40.420656-30.142174 21.692318-19.501987 45.424257-37.687766 35.62805-91.431263-9.193363-50.407763-53.512407-97.067849-92.154675-116.680357-32.89516-16.67867-66.754869-23.109-111.003581-11.303316-64.454017 17.201134-106.120549 130.53571-107.024815 133.007369-0.904265-2.471658-42.56075-115.806234-107.014767-133.017416-44.25876-11.765495-78.118469-5.375354-111.003581 11.343505-38.652315 19.612508-82.961312 66.312784-92.154675 116.680357-9.806254 53.743497 13.925685 71.929276 35.62805 91.431263 0 0-18.416869 1.004739-40.430703 30.142175-35.607955 47.072029-33.08606 127.501398 73.345958 171.147266 105.688511 43.3344 234.566402 54.255914 241.639766 54.255915 1.818578-0.150711 135.961302-10.941609 241.639765-54.255915 106.421971-43.676011 108.933819-124.055143 73.325864-171.177409z" fill="#EAE2D8" /><path d="M400.170287 702.302619c3.345781 22.847768 7.033174 51.754114-6.299715 64.986528-15.071087 14.920376-48.548996 12.800377-76.018564 9.454595-45.132883-5.495923-82.328326-33.327198-82.328326-74.441123s36.863879-74.441124 82.328326-74.441124 76.350128 33.759235 82.318279 74.441124z" fill="#D86028" /><path d="M343.502999 689.482147m-24.083598 0a24.083597 24.083597 0 1 0 48.167195 0 24.083597 24.083597 0 1 0-48.167195 0Z" fill="#FFFFFF" /><path d="M623.845317 702.302619c-3.355829 22.847768-7.033174 51.754114 6.299714 64.986528 15.071087 14.920376 48.538948 12.800377 76.018564 9.454595 45.132883-5.495923 82.318279-33.327198 82.318279-74.441123s-36.853832-74.441124-82.318279-74.441124-76.360175 33.759235-82.318278 74.441124z" fill="#D35F27" /><path d="M680.512605 689.482147m-24.083598 0a24.083597 24.083597 0 1 0 48.167195 0 24.083597 24.083597 0 1 0-48.167195 0Z" fill="#FFFFFF" /><path d="M478.439467 907.651206c-10.268434 0-20.858385-2.009478-30.323028-7.826918-19.692887-12.05687-29.8508-37.175349-30.192411-74.652118l10.047391-0.090427c0.301422 33.799425 8.841705 56.064445 25.389759 66.17212 25.982554 15.864831 63.961694-2.35109 68.211741-4.481136l4.501231 8.97232c-3.27545 1.65782-24.636204 11.906159-47.634683 11.906159z" fill="#CE6A20" /><path d="M563.892532 906.998126c-24.34483 0-46.378759-10.218197-47.715063-10.851183l4.280189-9.042652c0.442085 0.200948 43.897053 20.285683 72.210603 2.491753 16.598291-10.429192 25.118479-32.151653 25.439995-64.443969l10.047392 0.090426c-0.321517 35.999804-10.469382 60.515439-30.142175 72.873731-10.610045 6.601136-22.626726 8.881894-34.120941 8.881894z" fill="#CE6A20" /><path d="M433.577864 451.077642S476.218993 5.023696 515.544484 5.023696s74.883209 446.104183 74.883208 446.104183l-74.883208 43.585584z" fill="#758C9B" /><path d="M515.614815 500.410334l-87.412306-46.469186 0.321517-3.335734c0.100474-1.11526 10.841135-112.902538 26.253834-223.253039 9.042652-64.886054 17.954689-116.610026 26.414592-153.72509C495.962118 8.771373 506.8133 0.030142 515.484199 0.030142s19.441703 8.751278 33.156392 73.677522c7.877155 37.175349 15.935163 88.869178 23.973076 153.72509 13.664452 110.350501 22.626726 222.127731 22.717153 223.253039l0.251184 3.144834z m-76.741976-52.186152l76.520934 40.691936 69.728897-40.581414c-1.557346-18.929286-10.047392-119.915618-22.425778-219.696263-8.037913-64.59468-16.015542-116.037324-23.822365-152.891156-4.601705-21.702366-9.163221-38.44132-13.553931-49.744636-5.927961-15.272035-9.786159-15.955258-9.816302-15.955257s-3.858198 0.432038-10.157913 16.015542c-4.571563 11.313363-9.394311 28.052317-14.337627 49.754682-8.399619 36.863879-17.231276 88.296477-26.253834 152.901204-13.845305 99.459129-23.942934 200.103849-25.841891 219.505362z" fill="#57717F" /></svg>